<svg width="102" height="55" viewBox="0 0 102 55" fill="none" xmlns="http://www.w3.org/2000/svg">
<path d="M1 53.4154L100.48 53.4173C100.611 51.3388 100.606 49.18 100.48 47.8509C100.315 46.1155 100.047 44.4451 99.8452 43.0372C99.6261 41.5079 99.4336 39.6394 99.2756 36.5349C99.1932 34.9152 98.9765 33.7917 98.3942 32.3506C98.1774 31.8141 97.4514 31.3306 96.4916 30.9023M96.4916 30.9023C94.9571 30.2174 92.8251 29.6735 91.2224 29.2799C89.2763 28.8019 87.1011 28.6675 85.7029 28.4571C84.4821 28.2733 83.2531 28.2363 80.6564 28.1595C78.7506 28.1031 76.833 28.3136 75.4388 28.4983C74.3153 28.6471 73.1631 28.842 71.6516 29.1263C70.4855 29.3455 69.3726 30.0404 68.2555 30.8831C67.7137 31.2919 67.5272 31.9044 67.4089 32.4571C67.269 33.1109 67.4652 33.7887 67.7903 34.327C68.4613 35.4382 70.447 35.8391 71.9285 36.2797C73.0978 36.6274 75.6388 36.9983 77.4032 37.3149C80.5115 37.8728 85.738 37.369 87.1938 37.0674C89.1632 36.6592 90.2233 36.5471 92.3805 36.1566C94.069 35.851 95.0009 35.3713 95.8278 34.4268C96.5622 33.5879 96.6787 32.4609 96.6003 31.3777C96.5882 31.211 96.5508 31.0538 96.4916 30.9023ZM96.4916 30.9023C96.177 30.0971 95.2464 29.452 94.2256 28.3966C93.3895 27.532 92.3927 26.7568 89.6182 25.3864C86.6 23.8955 85.2933 23.7489 83.9076 23.3745C83.5643 23.2817 82.2216 23.2384 79.7639 23.2057M79.7639 23.2057C78.4427 23.1881 76.7992 23.1735 74.8155 23.1559L74.2965 23.1513C71.0665 23.1226 67.4776 23.0881 66.5631 23.08C63.4157 23.0522 72.5934 23.2114 76.6009 23.2726C77.6256 23.2882 78.6928 23.2566 79.7639 23.2057ZM79.7639 23.2057C81.1983 23.1375 82.6396 23.0348 83.995 22.9649C84.8013 22.9233 86.502 22.8669 89.7924 22.8574C91.5251 22.8524 93.0766 22.8389 94.4098 22.8236M94.4098 22.8236C96.2496 22.8025 97.6738 22.778 98.5855 22.7681C99.7382 22.7556 98.0926 22.8047 94.4098 22.8236ZM94.4098 22.8236C92.9254 22.8312 91.11 22.8339 89.0134 22.8258C85.5994 22.8124 84.4405 22.4421 83.0269 21.8709C82.2798 21.5691 81.9772 20.8749 81.8714 20.2289C81.5595 18.3245 82.0264 16.5373 82.3441 15.4368C82.4102 15.208 83.2243 15.1046 84.5045 15.0644M84.5045 15.0644C86.2226 15.0105 88.7804 15.0707 91.4965 15.0949M84.5045 15.0644C86.8949 15.0785 89.6274 15.0885 91.4965 15.0949M84.5045 15.0644C83.2774 15.0572 82.1404 15.0489 81.2566 15.0395C76.9504 14.9936 73.4765 14.92 71.4196 14.8638C70.3559 14.8347 69.4327 14.2609 68.3895 13.4124C67.7869 12.9223 67.645 12.3838 67.5298 11.6538C67.3436 10.4732 67.6935 9.52577 68.1414 9.15761C69.1555 8.32406 71.0173 8.35959 74.5461 8.12359C77.2123 7.94528 81.674 8.01124 84.2103 7.98672C88.091 7.94921 92.1305 7.78243 95.0005 7.57547C95.6205 7.53076 95.8832 6.86457 96.0581 6.35908C96.3898 5.40017 96.1119 3.87721 95.7379 2.34002C95.6622 2.02875 95.496 1.81081 95.2433 1.68129C94.674 1.38948 90.009 1.51982 83.4021 1.56966C79.5113 1.59902 76.1965 1.49764 73.4094 1.37657C71.5699 1.29666 70.1745 1.32451 68.3983 1.37525C61.0319 1.58567 59.2246 1.06729 56.7618 1.01556C55.2287 0.983352 54.0208 0.986037 53.567 1.1738C52.6281 1.56225 52.5437 3.0201 52.2574 4.10937C52.186 4.38078 52.1746 4.67034 52.1572 9.12867C52.1398 13.587 52.1398 22.2104 52.1229 27.394C52.1012 34.0388 52.0189 36.2055 51.9895 36.9779L51.9893 36.9853C51.9552 37.8806 51.423 34.6958 51.0042 33.394C50.6583 32.3187 50.1683 31.4099 49.251 30.2686C48.4755 29.3038 47.7168 28.2763 46.2489 27.3044C45.7238 26.9567 45.6249 26.8682 44.5005 27.0005C44.2076 27.035 44.0856 27.1627 44.0352 27.411M91.4965 15.0949C92.1183 15.1005 92.7484 15.1042 93.3786 15.1042C94.3247 15.1042 93.3227 15.1012 91.4965 15.0949ZM44.0352 27.411C44.0047 27.5613 44.0005 27.7558 44.0005 28.0005C44.0005 31.0005 43.744 32.9125 43.8542 34.5651M44.0352 27.411C44.0203 29.6025 43.9944 31.3109 43.9386 32.2436C43.9023 32.8503 43.8797 33.7159 43.8542 34.5651M44.0352 27.411C44.0485 25.4541 44.0529 23.112 44.062 20.5929C44.0721 17.7817 43.7162 16.0403 43.458 13.5482C43.3074 12.0955 43.1627 10.7583 43.0038 9.56959M43.8542 34.5651C43.8776 34.9153 43.8591 35.2507 43.8212 35.5592M43.8542 34.5651C43.844 34.905 43.8334 35.2422 43.8212 35.5592M43.8212 35.5592C43.7177 36.401 43.4688 37.0421 43.5271 37.2355C43.6974 37.8013 43.7718 36.8477 43.8212 35.5592ZM43.0038 9.56959C42.957 9.21908 42.9089 8.88149 42.8591 8.55764C42.6026 6.89049 42.4901 5.34971 42.6416 4.01609C42.6742 3.72877 42.7495 3.4651 42.7558 3.52561C42.9032 4.95013 42.9796 7.17804 43.0038 9.56959ZM43.0038 9.56959C43.017 10.8658 43.0149 12.21 43.0005 13.5005C42.9928 14.1942 43.1858 14.8166 43.0005 15.0005C42.1423 15.8521 39.792 15.7333 38.6359 16.112C37.6335 16.4404 36.4279 16.4883 33.4667 16.8777C33.2108 16.9113 33.0351 17.0276 32.9171 17.2116M32.9171 17.2116C32.5185 17.8331 32.7776 19.2275 32.8231 20.8219C32.9621 25.6888 32.6651 29.8347 32.3494 31.5005C32.1029 32.8016 31.8716 34.0116 30.8893 34.9928C27.8915 37.9874 23.3891 35.2682 20.1518 35.5338C19.5863 35.5803 19.1526 35.5883 18.9073 35.2819C18.3052 34.5299 18.5502 32.5588 18.545 30.5832C18.5419 29.3799 18.7372 26.0625 18.8259 21.5185C18.88 18.7487 18.9957 16.8004 19.084 9.96426C19.1524 4.66849 19.0096 3.88191 19.27 3.48029C20.3089 1.87782 27.6149 3.34878 31.2459 4.37525C33.4908 5.00987 33.433 9.65607 33.2944 11.4499C33.0362 13.227 32.9969 14.2077 32.9374 15.0356C32.9177 15.5764 32.9171 16.3787 32.9171 17.2116ZM32.9171 17.2116C32.9171 17.2356 32.9171 17.2598 32.9171 17.2839" stroke="black" stroke-width="2" stroke-linecap="round"/>
</svg>
