<svg width="102" height="55" viewBox="0 0 102 55" fill="none" xmlns="http://www.w3.org/2000/svg">
  <path id="meroeng-path" 
    d="M1 53.4 L100.4 53.4 L100.4 47.8 C100.4 35 95 30 90 30 C80 30 70 40 75 45 C80 50 95 40 95 30 C95 25 85 23 80 23 L66 23 C66 23 75 23 85 23 C90 23 95 23 98 22 C95 22 85 22 83 22 C82 20 82 16 82 15 L91 15 C85 15 75 15 71 15 C70 15 67 12 67 11 C67 9 70 8 74 8 L95 7 C96 6 96 4 95 2 C94 1 90 1 83 1 L53 1 C52 4 52 15 52 36 L51 33 C50 31 46 27 44 27 L44 34 L44 27 C44 15 43 10 43 9 C43 8 42 3 42 3 C43 15 43 15 38 16 C34 17 33 17 33 20 C33 25 32 30 32 34 C25 38 20 35 19 35 C18 30 18 20 19 10 C19 4 19 3 20 3 C25 3 30 4 33 4 C33 4 33 15 32.9 17" 
    stroke="black" stroke-width="2" stroke-linecap="round" stroke-linejoin="round"/>
</svg>